# xmcd
#
# Track frame offsets: 
#        150
#        19949
#        39075
#        56458
#        70384
#        90829
#        108904
#        124790
#        144606
#        160509
#        174720
#        188825
#
# Disc length: 2723 seconds
#
# Revision: 2
# Processed by: cddbd v1.5.2PL0 Copyright (c) Steve Scherf et al.
# Submitted via: ExactAudioCopy v0.90b4
#
DISCID=940aa10c
DTITLE=Kevin Brown - Modjavé Dust
DYEAR=2002
DGENRE=Blues
TTITLE0=Modjavé Dust
TTITLE1=Johnny Don't Cry
TTITLE2=Tornado Woman
TTITLE3=Its Just A Thing
TTITLE4=Something In The Breeze
TTITLE5=Travelling Riverside Blues
TTITLE6=Into The Stone
TTITLE7=Alcohol
TTITLE8=No One But Myself To Blame
TTITLE9=Are You Still Dancing
TTITLE10=Gypsy Boy
TTITLE11=When Saturday Comes
EXTD=
EXTT0=
EXTT1=
EXTT2=
EXTT3=
EXTT4=
EXTT5=
EXTT6=
EXTT7=
EXTT8=
EXTT9=
EXTT10=
EXTT11=
PLAYORDER=
